# xmcd
#
# Track frame offsets:
# 150
# 20515
# 40160
# 59772
# 76240
# 93262
# 114150
# 135342
# 152065
# 169650
#
# Disc length: 2584 seconds
#
# Revision: 0
# Processed by: cddbd v1.5.1PL0 Copyright (c) Steve Scherf et al.
# Submitted via: Audion 3.0.2 (http://www.panic.com/audion/)
#
DISCID=710a160a
DTITLE=Lia Osborne - Going Troppo
DYEAR=1900
DGENRE=
TTITLE0=Bad Boys
TTITLE1=Going Troppo
TTITLE2=Groovie Feeling
TTITLE3=Dream
TTITLE4=Something Stupid
TTITLE5=Party tonight
TTITLE6=Georgie
TTITLE7=Blame it on the Rain
TTITLE8=Sha La La
TTITLE9=Pacifica
EXTD=
EXTT0=
EXTT1=
EXTT2=
EXTT3=
EXTT4=
EXTT5=
EXTT6=
EXTT7=
EXTT8=
EXTT9=
PLAYORDER=
